<?xml version="1.0" standalone="no"?>
<!DOCTYPE svg PUBLIC "-//W3C//DTD SVG 20010904//EN"
 "http://www.w3.org/TR/2001/REC-SVG-20010904/DTD/svg10.dtd">
<svg version="1.0" xmlns="http://www.w3.org/2000/svg"
 width="1114.000000pt" height="954.000000pt" viewBox="0 0 1114.000000 954.000000"
 preserveAspectRatio="xMidYMid meet">

<g transform="translate(0.000000,954.000000) scale(0.100000,-0.100000)"
fill="#000000" stroke="none">
<path d="M5380 8630 c0 -5 7 -10 15 -10 8 0 15 -4 15 -9 0 -4 -20 -4 -45 2
-40 9 -49 8 -75 -11 -16 -12 -41 -22 -56 -22 -15 0 -32 -7 -38 -16 -12 -15
-132 -53 -173 -54 -12 0 -23 6 -26 13 -4 14 -78 15 -171 3 -40 -5 -65 -15 -80
-30 -40 -41 -148 -75 -173 -54 -9 7 -40 6 -105 -6 -67 -12 -104 -13 -133 -7
-22 6 -41 8 -43 6 -8 -7 9 -25 24 -25 8 0 14 -7 14 -15 0 -12 -14 -15 -64 -15
-56 0 -67 -3 -87 -25 -27 -29 -79 -60 -79 -47 0 14 23 32 42 32 10 0 18 5 18
10 0 6 -5 10 -12 10 -6 0 -3 7 8 15 17 13 17 14 2 15 -9 0 -21 -6 -25 -12 -4
-7 -17 -18 -28 -24 -11 -6 -21 -21 -23 -33 -3 -17 -9 -22 -23 -18 -10 3 -19 1
-19 -4 0 -5 -3 -8 -7 -8 -5 1 -15 1 -23 0 -11 -1 -11 -4 -2 -13 16 -16 15 -28
-2 -28 -8 0 -17 8 -19 18 -4 13 -5 11 -6 -5 -1 -18 -7 -23 -27 -23 -37 0 -104
-21 -104 -33 0 -5 7 -6 16 -3 39 15 64 17 83 6 16 -8 21 -8 21 1 0 7 2 10 5 7
10 -10 -7 -38 -24 -38 -14 0 -14 -2 -1 -10 18 -11 3 -25 -83 -72 -50 -27 -57
-35 -53 -54 5 -17 0 -24 -22 -32 -29 -11 -162 -135 -162 -153 0 -6 -9 -8 -22
-4 -17 6 -20 4 -14 -11 5 -13 -5 -30 -37 -63 -44 -45 -72 -94 -44 -75 7 5 1
-2 -14 -16 -15 -14 -30 -36 -34 -50 -4 -14 -19 -45 -32 -69 -21 -38 -23 -48
-12 -72 10 -27 8 -33 -26 -74 -36 -44 -105 -188 -105 -218 0 -9 -4 -19 -10
-22 -5 -3 -10 -15 -10 -26 0 -10 -9 -36 -20 -57 -14 -25 -18 -47 -15 -67 4
-20 3 -25 -3 -17 -17 25 -24 -17 -29 -175 -5 -128 -3 -157 11 -186 9 -19 16
-55 16 -80 0 -31 5 -47 15 -51 12 -4 14 -14 10 -38 -3 -18 0 -54 8 -80 8 -25
12 -58 10 -72 -3 -15 2 -37 11 -51 9 -13 16 -31 16 -39 0 -7 13 -45 30 -84 16
-38 39 -104 50 -146 30 -106 125 -342 154 -380 13 -17 27 -46 30 -64 5 -19 12
-30 19 -25 6 4 8 0 4 -9 -6 -17 30 -58 51 -58 6 0 27 -16 46 -36 37 -39 66
-108 66 -160 0 -18 5 -36 10 -39 6 -3 10 -48 10 -98 0 -88 -1 -92 -25 -104
-23 -10 -26 -9 -31 13 -4 15 -13 24 -25 24 -17 0 -24 11 -20 32 0 4 -9 13 -21
19 -17 9 -23 8 -30 -5 -5 -8 -27 -20 -50 -27 -49 -13 -98 -58 -98 -91 -1 -22
-1 -22 -15 -4 -15 19 -15 19 -15 -5 0 -16 -3 -20 -8 -11 -12 18 -52 -23 -52
-53 0 -31 -17 -33 -23 -2 -3 15 -4 12 -4 -8 1 -40 6 -48 23 -34 11 9 14 7 14
-9 0 -15 -5 -20 -15 -16 -20 8 -19 -17 1 -42 8 -10 13 -13 9 -6 -3 6 -2 12 4
12 5 0 13 -14 16 -32 6 -27 9 -29 17 -13 8 14 12 15 19 4 7 -9 8 -5 3 13 -8
34 6 60 17 32 7 -15 8 -13 6 10 -2 35 20 47 26 14 4 -19 5 -18 6 7 l3 30 13
-30 c11 -24 15 -27 20 -13 4 11 17 16 36 16 32 -1 91 50 103 90 10 31 41 37
65 13 12 -12 21 -28 21 -36 0 -18 20 -20 21 -2 2 36 22 -59 25 -123 3 -71 14
-170 29 -286 5 -34 4 -54 -4 -58 -6 -4 -11 -16 -11 -27 0 -10 -5 -19 -11 -19
-7 0 -9 -17 -4 -52 8 -58 22 -91 34 -84 4 3 11 -32 14 -77 10 -127 9 -147 -9
-147 -10 0 -14 -7 -12 -21 2 -15 -4 -24 -20 -30 -18 -7 -28 -4 -45 15 l-23 24
-22 -23 -23 -24 42 -21 c44 -23 81 -22 131 4 15 8 42 16 60 18 l33 3 -3 -122
c-1 -79 1 -123 8 -123 5 0 10 14 10 32 0 17 3 28 7 24 15 -15 31 -123 26 -173
-3 -30 -2 -53 4 -53 12 0 33 -75 47 -170 8 -50 16 -74 24 -72 7 1 20 -14 29
-34 14 -29 15 -37 4 -44 -11 -6 -11 -12 3 -31 9 -13 16 -38 16 -56 0 -18 5
-33 10 -33 6 0 10 -9 10 -21 0 -22 40 -99 52 -99 4 0 13 10 19 22 11 20 12 19
25 -18 8 -21 12 -49 9 -60 -3 -12 2 -35 10 -50 8 -16 15 -37 15 -46 0 -10 16
-32 36 -50 25 -23 33 -38 29 -50 -9 -23 -25 -13 -26 15 0 12 -3 16 -6 9 -2 -6
-9 -10 -14 -6 -5 3 -9 1 -9 -5 0 -5 4 -11 9 -13 5 -1 10 -10 11 -18 4 -29 0
-183 -5 -179 -4 5 -22 152 -28 225 l-2 31 -42 -29 c-52 -35 -233 -233 -233
-254 0 -9 -4 -13 -9 -9 -5 3 -15 -11 -22 -30 -7 -19 -16 -35 -19 -35 -9 0 -32
-51 -26 -58 3 -2 -19 -28 -48 -56 -55 -54 -163 -194 -197 -255 -11 -20 -35
-61 -54 -91 -19 -30 -34 -63 -35 -73 0 -11 -8 -31 -19 -45 -19 -28 -81 -155
-81 -166 0 -4 -10 -20 -21 -35 -12 -16 -18 -34 -14 -41 4 -7 -2 -18 -14 -27
-16 -10 -19 -18 -12 -27 7 -8 4 -15 -10 -24 -10 -7 -19 -19 -19 -26 0 -10 -9
-14 -27 -11 -18 2 -37 -5 -53 -20 -14 -12 -43 -28 -65 -35 -22 -7 -53 -21 -70
-31 -16 -11 -35 -19 -42 -19 -7 0 -35 -13 -63 -30 -27 -16 -50 -27 -50 -23 0
3 -9 -6 -21 -21 -21 -27 -68 -59 -55 -37 4 6 0 11 -8 11 -9 0 -16 3 -16 6 0
13 44 44 62 44 11 0 16 5 13 10 -3 6 3 10 13 10 11 0 22 9 25 20 3 11 9 19 14
18 4 -2 23 12 42 30 33 31 43 36 69 33 6 -1 12 7 12 17 0 21 18 32 53 33 21 0
21 1 2 8 -21 8 -22 8 102 35 40 9 50 14 43 25 -7 12 -27 8 -117 -24 -123 -43
-199 -80 -184 -90 6 -3 11 -11 11 -16 0 -5 -11 -2 -24 6 -20 13 -32 14 -68 5
-24 -6 -52 -15 -63 -19 -11 -5 -47 -18 -80 -30 -33 -12 -83 -33 -110 -46 -28
-14 -56 -25 -63 -25 -14 0 -167 -58 -262 -100 -36 -16 -130 -54 -210 -85 -80
-31 -181 -71 -225 -90 -44 -18 -100 -40 -125 -48 -25 -8 -67 -25 -95 -37 -27
-12 -91 -37 -141 -56 -50 -19 -104 -41 -120 -49 -16 -8 -33 -15 -37 -15 -5 0
-23 -6 -40 -14 -18 -7 -61 -24 -97 -36 -36 -12 -69 -26 -75 -31 -5 -5 -17 -9
-26 -9 -54 0 -659 -276 -659 -300 0 -6 -7 -10 -15 -10 -30 0 -347 -179 -339
-191 3 -5 10 -7 15 -4 10 7 12 -8 2 -18 -3 -4 -11 1 -18 10 -11 14 -24 9 -118
-53 -59 -38 -107 -76 -107 -84 1 -11 7 -8 20 9 12 14 26 21 35 17 15 -6 21 -2
83 54 18 17 38 30 45 30 7 0 1 -10 -13 -21 l-25 -20 35 5 c30 5 28 3 -15 -13
-27 -11 -47 -20 -43 -20 4 -1 -4 -12 -18 -26 -25 -25 -40 -33 -29 -15 3 6 -1
7 -9 4 -9 -3 -16 -12 -16 -20 0 -8 -4 -14 -9 -14 -25 0 -41 -34 -41 -86 l0
-54 2913 1 c2543 1 2908 2 2879 15 -18 8 -30 19 -27 24 4 6 3 10 -2 9 -4 -1
-21 3 -38 10 -16 7 -31 12 -33 11 -10 -3 -142 126 -142 140 0 13 -6 13 -31 -3
-17 -9 -23 -9 -26 1 -3 6 -11 12 -18 12 -7 0 -15 4 -17 8 -1 4 -25 24 -52 45
-70 53 -136 116 -136 129 0 6 -3 9 -6 5 -10 -9 -29 14 -42 51 -6 18 -18 40
-27 48 -10 10 -15 34 -15 68 0 40 -5 57 -20 71 -11 10 -20 26 -20 37 0 10 -9
27 -20 38 -11 11 -20 24 -20 30 0 5 -4 10 -10 10 -5 0 -10 8 -10 18 0 10 -3
22 -7 26 -13 13 -11 36 3 36 8 0 14 5 14 10 0 6 11 16 25 22 14 6 25 17 25 25
0 17 -17 17 -22 1 -3 -7 -17 -13 -31 -13 -20 -1 -27 4 -27 18 0 14 -5 18 -20
14 -13 -3 -20 0 -20 9 0 8 5 14 11 14 6 0 9 9 6 19 -3 14 -1 18 9 14 10 -4 11
2 4 28 -11 36 -6 49 16 49 11 0 13 -6 9 -21 -6 -16 -3 -20 11 -17 10 1 17 6
16 11 -1 4 -2 16 -2 27 0 11 -6 19 -12 18 -7 -2 -14 7 -16 20 -2 14 -10 22
-23 22 -13 0 -19 6 -17 16 2 10 -2 19 -9 21 -8 3 -11 -9 -8 -41 3 -27 1 -46
-5 -46 -6 0 -10 14 -10 31 0 27 -2 30 -15 19 -13 -10 -15 -9 -15 8 0 15 5 20
16 15 12 -4 14 0 8 23 -10 41 -15 48 -25 33 -6 -10 -11 -6 -18 14 -6 16 -11
34 -11 42 0 8 -5 17 -11 20 -7 5 -8 -5 -3 -32 6 -35 6 -37 -9 -24 -10 7 -17
24 -17 38 0 28 -21 53 -44 53 -9 0 -16 -8 -16 -19 0 -11 -4 -23 -10 -26 -13
-8 -13 11 0 36 9 16 6 22 -25 40 -39 23 -42 31 -20 49 12 10 15 10 15 -4 0 -9
5 -16 10 -16 6 0 10 11 10 24 0 14 4 28 10 31 6 3 10 10 10 16 0 14 -28 11
-33 -3 -8 -23 -20 0 -13 26 4 18 11 23 26 19 30 -8 39 27 12 45 -12 8 -22 22
-23 31 0 9 -5 4 -11 -12 l-10 -28 -35 35 c-34 33 -35 34 -19 59 16 24 16 24
-15 31 -17 3 -29 11 -27 18 7 20 28 21 28 1 0 -15 2 -16 10 -3 8 12 12 12 18
2 7 -10 13 -7 25 11 14 21 14 28 0 70 -8 26 -19 44 -24 41 -5 -3 -9 3 -9 13 0
10 -7 26 -14 36 -24 31 -27 -6 -5 -80 22 -80 22 -73 9 -73 -5 0 -10 9 -10 20
0 11 -10 36 -21 57 -18 33 -20 42 -10 70 7 18 9 37 6 43 -3 5 -2 18 4 27 6 12
5 20 -7 29 -14 10 -13 14 6 35 25 26 15 39 -25 31 -22 -4 -24 -2 -18 17 4 15
2 21 -9 21 -18 0 -34 42 -17 48 6 2 11 15 11 28 0 14 4 23 9 19 5 -3 13 0 16
6 4 6 -2 13 -14 16 -22 6 -31 53 -10 53 5 0 31 9 56 21 35 16 44 25 40 40 -3
10 -1 22 4 25 5 3 9 0 9 -5 0 -6 9 -11 20 -11 23 0 26 10 8 28 -13 13 -5 27
11 17 6 -3 11 -17 11 -30 0 -21 3 -23 22 -16 27 10 88 -8 88 -26 0 -7 5 -13
11 -13 6 0 9 -7 5 -15 -4 -12 3 -15 34 -15 34 0 41 -4 46 -25 6 -25 24 -35 24
-14 0 5 5 7 10 4 6 -3 7 -18 4 -31 -5 -19 -3 -25 7 -22 22 5 58 -37 52 -61 -3
-12 -1 -21 6 -21 6 0 11 -9 11 -21 0 -11 4 -18 9 -14 6 3 15 -3 20 -14 6 -11
20 -23 32 -26 18 -6 20 -12 14 -46 -4 -25 -3 -39 4 -39 6 0 8 -7 5 -15 -5 -11
-2 -13 9 -9 10 3 21 -2 29 -15 7 -12 18 -21 25 -21 7 0 13 -5 13 -11 0 -5 20
-30 45 -55 25 -24 45 -53 45 -64 0 -10 9 -24 20 -30 11 -6 20 -17 20 -25 0
-18 16 -20 24 -2 4 8 5 7 5 -3 -3 -45 0 -49 31 -40 24 7 30 6 30 -7 0 -9 -6
-13 -15 -9 -8 3 -15 2 -15 -2 0 -11 43 -37 57 -34 6 1 14 -2 18 -8 6 -10 -7
-14 -32 -11 -6 1 -15 -4 -19 -10 -5 -8 -2 -10 8 -6 17 6 48 -21 48 -41 0 -7 5
-12 10 -12 7 0 8 13 4 36 -5 29 -4 36 7 32 8 -3 15 -14 17 -26 2 -12 8 -20 13
-17 5 4 9 -3 9 -14 0 -25 16 -36 24 -15 9 23 27 6 24 -23 -2 -14 2 -28 9 -30
7 -3 9 3 6 17 -4 16 -2 19 12 13 13 -4 16 -3 11 5 -4 7 -1 12 8 12 9 0 16 -4
16 -10 0 -5 8 -10 19 -10 10 0 24 -7 31 -15 7 -8 18 -15 26 -15 7 0 25 -11 39
-24 14 -13 33 -23 42 -22 10 0 19 -9 23 -24 4 -17 13 -25 28 -26 12 -1 28 -7
36 -13 8 -7 20 -10 26 -6 5 3 10 1 10 -6 0 -8 -12 -10 -40 -5 -34 5 -40 3 -41
-11 -1 -12 -3 -9 -8 7 -5 18 -14 25 -31 25 -16 0 -29 -9 -37 -25 -9 -18 -13
-20 -13 -7 0 9 -7 17 -15 17 -8 0 -21 12 -29 28 l-15 27 -1 -26 c0 -15 -7 -32
-16 -40 -14 -11 -14 -13 0 -21 9 -5 16 -14 16 -19 0 -6 -4 -8 -9 -5 -16 10
-61 -54 -67 -96 -4 -24 -10 -35 -14 -27 -10 15 -40 4 -40 -15 0 -7 9 -16 20
-19 28 -7 25 -27 -5 -27 -16 0 -25 -6 -25 -15 0 -8 5 -15 11 -15 5 0 7 -5 4
-10 -7 -12 12 -40 27 -40 6 0 8 9 5 19 -3 14 -1 18 9 14 17 -6 18 -15 3 -30
-18 -18 0 -35 35 -33 46 3 51 1 38 -12 -18 -18 -72 -19 -72 -2 0 7 -4 15 -9
18 -13 9 -42 -4 -35 -16 3 -5 12 -7 20 -4 9 3 14 -2 14 -14 0 -13 -5 -18 -15
-14 -8 4 -15 1 -15 -5 0 -6 7 -11 15 -11 8 0 15 -3 15 -7 0 -5 11 -9 25 -9 15
-1 25 4 25 11 0 8 5 17 11 21 8 5 10 -1 7 -20 -3 -14 -1 -26 3 -26 5 0 9 -7 9
-16 0 -25 83 -16 92 11 4 13 6 5 7 -23 1 -32 -2 -41 -11 -36 -9 5 -8 2 1 -10
18 -22 30 -5 32 44 0 32 1 33 11 13 6 -12 8 -33 4 -47 -9 -36 -9 -40 2 -44 5
-1 13 13 16 33 9 44 24 38 18 -7 -4 -27 -2 -31 9 -20 18 17 26 15 32 -7 4 -16
13 -19 48 -18 32 1 44 -3 45 -13 1 -8 2 -19 3 -24 0 -5 11 4 22 19 16 19 28
26 46 22 13 -2 25 -1 28 3 2 4 21 6 41 5 28 -2 40 -8 46 -24 8 -24 28 -29 28
-7 0 8 7 17 16 20 21 8 21 8 28 -10 4 -12 2 -15 -9 -10 -8 3 -15 1 -15 -4 0
-16 28 -11 47 8 10 10 25 17 33 17 8 -1 34 -3 58 -3 38 -2 42 -4 42 -27 0 -14
5 -25 10 -25 6 0 10 8 8 17 -2 10 4 19 15 21 12 2 17 -3 17 -17 0 -12 5 -21
10 -21 6 0 10 -6 10 -13 0 -7 9 -18 20 -24 16 -11 21 -10 28 4 12 20 32 9 32
-18 0 -10 5 -19 10 -19 6 0 10 -10 10 -22 1 -23 1 -23 15 2 11 19 14 21 15 8
0 -20 16 -24 22 -7 3 8 19 7 58 -1 68 -14 130 -18 130 -8 0 19 31 6 40 -16 5
-14 18 -30 29 -35 11 -6 25 -27 31 -46 8 -24 18 -35 31 -35 23 0 26 -32 4 -54
-9 -8 -12 -22 -8 -32 5 -14 2 -16 -14 -12 -15 4 -20 1 -19 -10 3 -18 26 -29
26 -13 0 6 6 11 13 11 6 -1 0 -11 -15 -23 -16 -13 -28 -29 -28 -36 0 -8 -6
-11 -15 -7 -10 3 -18 -1 -21 -12 -8 -23 -28 -66 -34 -72 -35 -35 -91 -127 -73
-118 5 2 43 20 86 41 90 44 137 47 70 4 -24 -15 -48 -27 -55 -27 -7 -1 -29 -9
-48 -20 l-35 -19 60 -1 c53 0 62 3 92 32 31 30 33 31 33 10 0 -12 -4 -22 -10
-22 -5 0 -10 -4 -10 -10 0 -7 692 -10 2055 -10 1130 0 2055 2 2055 5 0 3 -7
17 -16 30 -12 19 -14 38 -9 83 l6 58 -124 124 c-68 69 -131 130 -139 135 -7 6
-36 28 -63 50 -57 46 -147 108 -209 145 -43 26 -170 107 -235 149 -48 32 -209
116 -241 126 -14 4 -79 32 -145 62 -66 30 -136 61 -155 70 -37 17 -535 265
-660 329 -115 59 -222 109 -361 167 -69 28 -138 62 -153 74 -27 22 -28 43 -1
43 22 0 27 34 10 73 -8 20 -15 46 -15 57 0 11 -4 20 -10 20 -5 0 -10 6 -10 14
0 8 -12 22 -27 31 -18 11 -29 26 -30 43 0 14 -11 34 -22 43 -26 22 -27 29 -1
22 15 -4 20 0 20 16 0 11 -6 21 -14 21 -28 0 -46 -13 -46 -33 0 -11 -3 -18 -6
-14 -10 10 7 67 20 67 7 0 13 6 13 13 0 6 4 21 8 32 6 15 2 14 -18 -7 -14 -16
-35 -28 -47 -28 -14 0 -20 -7 -20 -22 0 -19 -2 -20 -10 -8 -13 20 -12 40 1 40
18 0 37 31 31 52 -6 25 -22 12 -22 -18 0 -15 -4 -23 -11 -19 -5 4 -8 12 -6 18
2 7 0 20 -5 30 -6 11 -5 17 2 17 6 0 8 5 4 11 -4 8 -9 7 -15 -2 -6 -10 -9 -6
-9 14 0 29 -14 37 -24 12 -8 -21 3 -45 20 -45 8 0 14 -4 14 -10 0 -21 -26 -9
-43 20 -22 36 -42 40 -33 6 3 -13 1 -35 -4 -48 -9 -21 -10 -20 -5 7 3 24 -1
34 -25 53 -16 13 -45 26 -65 29 -31 5 -35 3 -35 -15 0 -11 -5 -24 -12 -28 -8
-5 -9 -2 -5 10 14 37 20 123 8 130 -7 5 -11 -3 -11 -22 0 -16 -3 -31 -6 -34
-11 -11 -44 5 -44 21 0 13 2 13 9 2 11 -16 31 -6 31 16 0 10 -6 14 -19 10 -15
-4 -22 2 -30 26 -6 16 -11 38 -11 48 0 11 -4 19 -8 19 -4 0 -16 26 -27 58 -10
31 -23 62 -30 67 -22 20 -75 107 -70 115 3 5 -4 11 -15 15 -11 3 -25 16 -31
27 -12 23 -68 74 -110 101 -15 10 -32 32 -39 50 -9 27 -8 34 7 44 9 7 20 13
25 13 4 0 8 8 8 18 0 18 32 52 50 52 5 0 14 8 19 18 8 13 10 14 11 2 0 -10 5
-8 15 7 9 12 14 28 13 35 -2 7 3 12 10 11 6 -2 12 1 12 7 0 5 7 7 16 3 17 -6
34 12 34 36 0 11 -4 10 -13 -4 -8 -10 -17 -14 -20 -8 -4 5 3 19 13 31 11 12
20 25 20 30 0 5 10 16 23 25 12 8 19 18 15 22 -4 4 -14 2 -23 -5 -13 -11 -15
-9 -15 12 0 31 9 41 25 28 9 -8 14 -2 18 20 4 16 13 30 21 30 19 0 27 47 8 55
-10 4 -13 15 -9 38 8 51 64 205 80 221 16 16 40 129 36 167 -4 38 12 110 32
146 10 18 14 33 9 33 -15 0 -12 17 6 34 8 9 11 16 5 16 -7 0 -11 23 -11 58 0
36 -6 66 -15 78 -14 18 -22 54 -8 41 9 -10 32 25 33 51 0 12 4 22 9 22 5 0 12
20 15 45 3 25 9 65 12 90 3 26 1 58 -5 73 -9 22 -8 34 4 59 9 17 18 49 21 70
3 21 7 49 9 63 2 14 4 31 4 38 2 30 20 8 26 -32 5 -32 2 -54 -13 -87 -23 -51
-28 -77 -18 -101 9 -19 36 -13 36 8 0 8 8 27 18 42 31 47 42 66 61 108 42 91
81 226 90 306 4 46 13 92 19 103 38 70 47 256 19 375 -10 41 -25 120 -35 175
-17 97 -18 100 -45 103 -15 2 -27 0 -27 -5 0 -4 -11 -21 -24 -38 l-24 -30 10
48 c7 35 7 56 -2 78 -16 38 -31 38 -20 -1 10 -34 -8 -152 -22 -144 -4 3 -8 32
-8 65 0 48 -4 61 -20 71 -11 7 -20 21 -20 30 0 13 -8 18 -29 18 -24 0 -30 5
-35 28 -8 38 0 155 12 178 11 22 38 164 46 243 3 29 13 65 22 79 12 19 16 49
17 124 0 88 2 98 17 93 15 -5 17 4 14 85 -1 50 1 92 6 95 4 2 13 -15 20 -38
17 -55 24 -33 9 24 -24 87 -13 207 18 195 13 -5 14 -1 9 21 -4 16 -11 48 -15
73 -4 25 -10 51 -14 58 -5 7 -3 12 7 12 38 0 23 96 -22 135 -13 11 -27 39 -33
62 -6 29 -24 58 -54 90 -40 41 -107 138 -74 106 20 -20 31 -15 19 8 -7 12 -18
18 -26 15 -9 -4 -14 2 -14 17 0 21 -67 114 -142 199 -34 39 -46 62 -47 88 0
12 2 12 12 -2 8 -10 18 -14 26 -8 11 6 7 16 -15 46 -16 20 -28 45 -26 55 2 9
-2 20 -8 24 -5 3 -10 16 -10 28 -1 24 -57 71 -123 102 -43 20 -62 41 -29 33
32 -9 27 -3 -23 26 -29 17 -45 34 -45 46 0 17 7 20 50 20 28 0 50 5 50 10 0 7
-18 8 -50 4 -40 -5 -54 -3 -69 10 -11 10 -25 14 -36 10 -13 -5 -16 -4 -11 4 4
7 14 12 22 12 32 0 11 19 -28 25 -24 4 -53 13 -65 21 -12 8 -34 14 -48 14 -29
0 -123 50 -150 80 -10 11 -25 20 -34 20 -21 0 -170 58 -195 76 -11 7 -30 11
-42 8 -21 -5 -96 17 -169 50 -16 8 -52 19 -80 24 -111 23 -112 23 -90 32 18 8
17 9 -7 9 -15 1 -29 5 -33 10 -3 5 -20 13 -38 16 -17 4 -64 22 -102 41 -69 32
-161 55 -274 69 -30 3 -78 12 -107 20 -54 14 -411 15 -464 1 -14 -4 -45 -3
-69 3 -33 7 -47 6 -57 -3 -31 -32 -212 -22 -247 13 -14 14 -37 14 -37 1z
m2580 -801 c0 -5 -4 -9 -10 -9 -5 0 -10 7 -10 16 0 8 5 12 10 9 6 -3 10 -10
10 -16z m-2037 -624 c25 -17 93 -20 103 -4 4 8 9 8 17 0 14 -14 40 -14 32 0
-4 6 3 5 15 -3 18 -11 23 -11 34 4 9 12 16 14 29 6 10 -5 32 -7 50 -4 20 4 44
-1 65 -12 29 -15 34 -15 42 -2 9 13 10 13 10 0 0 -9 10 -16 24 -16 30 -2 73
-33 80 -57 2 -10 10 -17 18 -15 7 2 27 -7 44 -19 17 -12 53 -27 80 -33 27 -7
58 -14 69 -18 11 -3 56 -6 100 -7 44 0 85 -4 92 -8 6 -4 24 -7 40 -7 78 0 134
-8 167 -24 20 -9 41 -14 46 -11 6 4 17 -1 26 -9 18 -19 38 -20 66 -5 31 16 78
18 78 2 0 -7 8 -13 18 -14 10 0 12 -3 5 -6 -9 -3 -10 -10 -3 -24 8 -15 6 -22
-9 -36 -23 -19 -19 -35 6 -26 9 4 21 0 27 -9 10 -14 78 -32 72 -19 -25 52 -36
84 -32 94 2 7 5 4 5 -5 1 -10 5 -18 11 -18 5 0 6 8 3 17 -5 12 -2 15 10 10 8
-3 18 -1 21 6 2 7 5 1 5 -12 1 -15 6 -21 14 -18 8 3 20 1 28 -4 12 -7 12 -9 0
-9 -11 0 -11 -3 -1 -15 11 -13 10 -18 -6 -31 -16 -13 -16 -15 -2 -10 9 3 18 0
20 -5 2 -7 12 -7 28 -1 14 5 39 8 55 7 57 -4 61 -6 40 -15 -17 -7 -14 -9 14
-9 33 -1 33 -1 18 -25 -14 -21 -14 -25 0 -39 21 -20 7 -43 -15 -25 -12 10 -14
10 -8 0 5 -8 -1 -15 -16 -21 l-23 -8 22 -7 c22 -7 38 -34 27 -45 -4 -3 -9 0
-11 7 -3 6 -11 12 -19 12 -12 0 -12 -4 -4 -21 14 -25 6 -49 -14 -49 -10 0 -13
-6 -10 -15 7 -17 33 -21 35 -5 1 6 2 14 3 19 0 6 7 16 15 23 11 11 12 7 6 -22
-4 -19 -11 -36 -16 -38 -5 -2 -9 -10 -9 -17 0 -27 -19 -25 -34 2 -14 26 -15
27 -16 6 0 -16 -6 -23 -19 -23 -18 0 -27 -17 -45 -85 -3 -11 -3 -2 -1 20 10
88 10 100 -3 100 -7 0 -17 7 -22 15 -7 12 -12 12 -34 0 -14 -7 -26 -18 -26
-24 0 -5 -6 -1 -14 9 -13 18 -14 18 -20 -3 -4 -12 -12 -22 -17 -22 -12 0 -12
13 1 26 14 14 1 46 -16 40 -8 -3 -14 0 -14 7 0 7 -5 4 -11 -6 -6 -10 -9 -38
-7 -63 2 -24 0 -44 -4 -44 -7 0 -13 68 -9 93 2 14 -27 19 -46 8 -10 -6 -13
-11 -8 -11 6 0 9 -17 7 -41 -3 -27 -7 -37 -13 -28 -4 7 -11 10 -15 6 -12 -12
11 -28 29 -21 9 3 18 13 20 22 3 12 5 10 6 -6 1 -15 -7 -26 -24 -34 -27 -12
-31 -23 -15 -33 6 -4 8 -12 4 -18 -3 -7 3 -2 13 9 15 16 24 19 36 12 9 -5 17
-14 17 -21 0 -7 -4 -6 -10 3 -7 12 -12 12 -22 2 -9 -9 -9 -12 0 -12 7 0 12 -7
12 -15 0 -24 27 -18 34 8 6 20 7 21 17 4 6 -10 8 -25 5 -33 -6 -16 30 -35 51
-27 12 5 97 -76 89 -85 -3 -2 1 -20 9 -39 23 -54 20 -59 -31 -55 -49 4 -150
-9 -121 -15 20 -5 13 -23 -9 -23 -8 0 -14 7 -14 15 0 8 -2 15 -5 15 -8 0 -49
-24 -55 -32 -3 -4 -43 -9 -88 -10 -48 -2 -80 -7 -79 -13 4 -12 -148 -63 -212
-72 -25 -3 -56 -12 -67 -20 -12 -8 -26 -13 -30 -12 -18 4 -121 -40 -135 -58
-19 -22 -39 -15 -39 15 0 15 -4 33 -9 41 -7 11 -10 9 -16 -9 -4 -14 -3 -25 4
-30 9 -5 9 -14 1 -34 -8 -21 -15 -26 -29 -21 -15 5 -23 -2 -37 -31 l-17 -36
-12 29 -12 28 -7 -28 c-3 -15 -10 -25 -15 -22 -5 2 -15 -24 -22 -60 -11 -55
-15 -64 -33 -62 -16 2 -21 -3 -20 -22 1 -24 1 -24 -22 5 -21 26 -24 27 -25 9
-1 -11 -1 -24 0 -28 1 -5 -4 -7 -11 -4 -7 2 -12 12 -12 21 2 20 -3 20 -22 1
-13 -13 -12 -16 6 -27 11 -7 20 -15 20 -19 0 -3 -29 -5 -65 -5 -36 0 -65 3
-65 6 0 4 -7 7 -15 7 -8 0 -15 -4 -15 -9 0 -14 -73 -8 -115 10 -46 20 -125 71
-125 82 0 4 -11 19 -25 34 -14 15 -25 32 -25 37 0 6 -4 7 -10 4 -5 -3 -10 3
-10 14 0 18 -2 19 -31 4 -28 -14 -31 -14 -43 2 -7 10 -18 15 -23 12 -17 -11
-69 16 -93 46 -12 15 -28 27 -36 27 -17 0 -17 -5 -2 -30 21 -33 -2 -37 -31 -5
-56 61 -82 80 -90 67 -6 -9 -29 -7 -102 12 -52 13 -101 27 -109 30 -14 6 -74
13 -128 15 -13 1 -21 4 -19 9 3 4 -53 6 -123 4 -80 -2 -131 1 -135 8 -3 5 -15
10 -26 10 -10 0 -19 5 -19 11 0 33 -243 -38 -279 -81 -21 -26 -118 -51 -165
-43 -36 6 -51 23 -20 23 12 0 15 6 10 26 -5 17 -3 23 4 19 5 -3 10 -2 10 4 0
26 -21 19 -27 -9 -5 -29 -7 -30 -22 -16 -14 15 -14 17 1 32 13 13 14 21 5 41
-8 19 -8 26 1 32 8 4 10 15 6 26 -5 13 -4 16 4 11 23 -14 12 6 -18 34 -16 15
-30 23 -30 17 0 -7 -4 -6 -9 2 -8 12 -11 12 -23 0 -7 -8 -13 -21 -13 -29 0 -9
-11 -15 -32 -16 -33 -2 -33 -1 -29 40 2 22 5 46 6 51 5 21 0 36 -10 30 -5 -3
-10 -21 -10 -40 0 -19 -4 -37 -10 -40 -6 -4 -10 14 -10 47 l0 53 -20 -25 c-12
-16 -17 -33 -13 -47 3 -14 1 -23 -6 -23 -6 0 -11 17 -12 38 -1 38 -3 37 -13
-11 -4 -15 -11 -25 -16 -22 -5 3 -10 -7 -12 -22 -2 -19 -8 -27 -19 -25 -11 1
-16 -6 -16 -28 0 -25 3 -29 20 -24 12 4 23 -1 33 -14 9 -13 22 -19 36 -16 13
3 6 -2 -14 -11 -46 -21 -55 -41 -22 -49 13 -4 24 -10 24 -15 0 -5 -9 -7 -20
-4 -29 8 -56 -5 -42 -19 17 -17 15 -28 -5 -28 -17 -1 -17 -1 0 -11 10 -6 30
-8 43 -5 20 5 24 11 20 29 -3 12 -3 16 0 10 3 -7 13 -13 22 -14 11 0 12 -2 5
-6 -7 -2 -13 -9 -13 -14 0 -14 28 -11 33 4 3 6 3 -6 0 -28 -3 -22 -11 -49 -18
-61 -7 -11 -15 -31 -18 -45 l-4 -24 -2 26 c-1 24 -4 26 -61 27 -43 1 -60 -2
-60 -11 0 -7 -11 -14 -25 -15 -19 -1 -25 3 -25 18 0 14 -5 18 -17 13 -13 -5
-15 -2 -11 15 4 12 2 25 -4 28 -5 3 -7 12 -4 20 3 8 2 14 -3 14 -11 0 -30 89
-20 96 5 3 7 10 4 15 -9 14 5 50 17 43 6 -4 8 3 7 17 -2 14 4 35 14 49 15 21
19 23 27 10 7 -10 8 -5 3 19 -4 25 -3 32 5 27 17 -10 36 42 22 59 -8 10 -8 15
0 20 6 4 15 18 20 31 11 27 32 33 24 7 -5 -17 -5 -17 6 0 15 23 37 22 45 -2 3
-11 12 -22 20 -25 12 -4 14 2 12 27 -2 27 2 32 23 36 14 1 28 8 33 15 5 8 9 8
15 0 5 -9 11 -8 20 2 7 8 8 14 2 14 -5 0 -10 7 -10 15 0 8 5 15 11 15 6 0 8 8
4 19 -3 11 1 26 10 35 20 20 11 53 -16 61 -11 4 -18 10 -14 13 6 7 10 8 36 11
6 0 8 8 5 17 -3 8 1 26 10 40 9 13 14 35 12 49 -4 20 -2 23 11 15 11 -6 22 -3
38 12 14 13 28 18 40 14 15 -6 15 -8 3 -16 -8 -6 -10 -10 -5 -10 6 0 16 5 22
11 16 16 120 24 137 10 8 -6 56 -17 107 -23 51 -6 99 -17 107 -24 22 -22 101
-17 161 11 42 20 56 23 63 13 11 -18 10 -30 -2 -23 -5 3 -10 -1 -10 -9 0 -11
11 -17 35 -18 19 -1 43 -2 53 -2 9 -1 21 -7 25 -14 6 -9 15 -4 33 18 14 17 43
34 65 40 21 6 39 15 39 21 0 6 17 26 37 45 20 19 41 44 47 56 17 34 61 61 85
53 11 -3 21 -12 21 -19 0 -7 9 -22 19 -33 11 -12 18 -23 15 -26 -3 -2 9 -10
26 -15 23 -9 32 -8 35 1 6 18 1 77 -6 77 -10 0 7 80 20 93 8 8 14 8 23 -1 22
-22 37 -13 36 21 0 17 4 46 8 63 11 37 54 94 72 94 6 0 12 9 12 21 0 15 5 19
15 15 9 -3 15 0 15 8 0 7 19 21 43 30 53 20 71 20 64 1 -9 -21 9 -28 19 -7 4
9 6 21 5 25 -1 5 2 6 6 4 5 -3 19 1 33 9 14 7 19 13 13 14 -7 0 -13 4 -13 8 0
15 111 12 133 -3z m-178 -4 c3 -5 1 -12 -5 -16 -5 -3 -10 1 -10 9 0 18 6 21
15 7z m-2518 -223 c-3 -8 -6 -5 -6 6 -1 11 2 17 5 13 3 -3 4 -12 1 -19z m4256
-72 c4 -10 0 -12 -15 -8 -15 4 -17 7 -6 13 17 11 15 11 21 -5z m-3205 -139
c-2 -5 8 -15 22 -23 l25 -14 -30 2 c-18 2 -29 8 -27 16 1 6 -5 12 -14 12 -8 0
-12 5 -9 11 8 12 38 8 33 -4z m3402 -217 c0 -5 -4 -10 -10 -10 -5 0 -10 5 -10
10 0 6 5 10 10 10 6 0 10 -4 10 -10z m-83 -22 c-3 -8 -6 -5 -6 6 -1 11 2 17 5
13 3 -3 4 -12 1 -19z m-247 -18 c0 -5 -4 -10 -10 -10 -5 0 -10 5 -10 10 0 6 5
10 10 10 6 0 10 -4 10 -10z m-3177 -26 c-6 -17 -23 -9 -23 11 0 8 6 12 14 9 8
-3 12 -12 9 -20z m3567 15 c12 -8 10 -9 -7 -4 -12 3 -24 1 -28 -5 -3 -5 -12
-10 -18 -10 -7 0 -3 7 7 15 23 18 26 18 46 4z m-350 -9 c0 8 3 11 6 8 3 -3 2
-22 -2 -42 l-6 -37 -14 27 c-20 37 -19 61 1 44 12 -10 15 -10 15 0z m104 -5
c-4 -8 -8 -15 -10 -15 -2 0 -4 7 -4 15 0 8 4 15 10 15 5 0 7 -7 4 -15z m-17
-57 c-3 -8 -6 -5 -6 6 -1 11 2 17 5 13 3 -3 4 -12 1 -19z m-3337 -18 c0 -5 -2
-10 -4 -10 -3 0 -8 5 -11 10 -3 6 -1 10 4 10 6 0 11 -4 11 -10z m3370 -10
c-20 -13 -53 -13 -45 0 3 6 18 10 33 10 21 0 24 -2 12 -10z m435 -110 c3 -6
-1 -7 -9 -4 -18 7 -21 14 -7 14 6 0 13 -4 16 -10z m130 -143 c5 -34 1 -208 -8
-380 -2 -20 -6 -26 -17 -21 -8 4 -28 12 -45 18 -16 6 -36 15 -42 19 -21 13
-15 26 10 20 18 -5 20 -3 10 8 -7 7 -13 22 -13 33 0 18 -2 19 -11 6 -8 -12 -9
-9 -4 10 8 29 9 41 1 137 -4 44 -3 74 4 78 5 3 10 11 10 16 0 6 -3 8 -7 6 -5
-3 -9 10 -10 29 -2 19 -4 37 -4 41 -5 30 3 63 15 63 7 0 20 7 27 16 12 14 17
12 45 -21 22 -23 35 -51 39 -78z m-3998 7 c-9 -9 -28 6 -21 18 4 6 10 6 17 -1
6 -6 8 -13 4 -17z m178 7 c3 -5 1 -12 -5 -16 -5 -3 -10 1 -10 9 0 18 6 21 15
7z m3299 -22 c13 -6 27 -20 29 -31 4 -15 11 -18 29 -13 13 4 20 4 15 -1 -4 -4
5 -16 20 -26 40 -26 8 -22 -36 4 -20 12 -38 25 -41 29 -3 3 -20 14 -37 23 -18
9 -33 19 -33 21 0 9 28 5 54 -6z m-3504 -19 c0 -5 -4 -10 -10 -10 -5 0 -10 5
-10 10 0 6 5 10 10 10 6 0 10 -4 10 -10z m240 -80 c0 -5 -4 -10 -10 -10 -5 0
-10 5 -10 10 0 6 5 10 10 10 6 0 10 -4 10 -10z m3445 -11 c-3 -4 -12 -6 -20
-3 -8 4 -13 10 -10 15 3 4 12 6 20 3 8 -4 13 -10 10 -15z m-3405 -99 c3 -1 13
-1 24 0 10 1 16 -2 13 -7 -9 -15 -72 -14 -92 1 -18 13 -17 14 15 11 19 -2 37
-4 40 -5z m3617 -47 c-3 -10 -5 -4 -5 12 0 17 2 24 5 18 2 -7 2 -21 0 -30z
m-3790 -15 c-3 -8 -6 -5 -6 6 -1 11 2 17 5 13 3 -3 4 -12 1 -19z m3773 3 c14
-27 13 -71 -2 -71 -14 1 -98 50 -85 50 5 0 18 -5 29 -11 16 -9 23 -8 29 2 7
12 11 11 19 -1 8 -13 10 -12 10 3 0 11 -9 21 -20 24 -23 6 -27 23 -5 23 8 0
19 -9 25 -19z m-3797 -53 c-4 -42 -4 -43 11 -18 12 19 15 21 16 8 0 -25 19
-22 29 4 4 12 17 22 29 23 l21 2 -22 -28 c-53 -68 -139 -39 -95 31 7 11 14 20
14 20 1 0 0 -19 -3 -42z m-458 -82 c66 -13 141 -27 168 -31 26 -3 47 -10 47
-16 0 -5 -5 -9 -11 -9 -6 0 -9 -6 -6 -14 3 -8 1 -16 -5 -18 -7 -3 -3 -13 10
-26 12 -12 22 -30 22 -39 0 -13 -3 -14 -8 -6 -4 7 -47 20 -94 28 -92 16 -242
67 -269 91 -18 16 -30 59 -20 69 3 4 15 4 26 0 11 -3 74 -16 140 -29z m795 10
c0 -3 -4 -8 -10 -11 -5 -3 -10 -1 -10 4 0 6 5 11 10 11 6 0 10 -2 10 -4z m-50
-46 c0 -5 -5 -10 -11 -10 -5 0 -7 5 -4 10 3 6 8 10 11 10 2 0 4 -4 4 -10z
m-20 -24 c0 -3 -4 -8 -10 -11 -5 -3 -10 -1 -10 4 0 6 5 11 10 11 6 0 10 -2 10
-4z m-50 -52 c0 -8 -5 -12 -10 -9 -6 4 -8 11 -5 16 9 14 15 11 15 -7z m720
-59 c0 -12 -14 -15 -64 -15 -60 0 -84 8 -69 24 3 3 35 6 70 6 49 0 63 -3 63
-15z m797 -27 c12 -23 18 -65 21 -143 3 -100 1 -116 -23 -180 -45 -120 -115
-235 -191 -318 -24 -26 -44 -52 -44 -58 0 -5 -11 -7 -25 -3 -26 6 -28 2 -28
-49 0 -25 -50 -58 -96 -62 -22 -2 -49 -8 -60 -14 -11 -6 -60 -21 -108 -33
-108 -27 -353 -32 -443 -9 -81 21 -280 107 -300 130 -3 3 -23 18 -45 33 -64
44 -111 97 -160 183 -43 76 -57 125 -35 125 16 0 50 -39 50 -57 0 -16 2 -16
11 -3 8 12 10 12 8 -5 -2 -34 0 -38 16 -25 12 10 16 9 20 -4 15 -48 18 -52 22
-28 5 25 23 30 23 6 0 -10 7 -14 22 -12 11 2 23 -3 25 -9 3 -7 0 -13 -6 -13
-6 0 -11 -8 -10 -17 0 -11 3 -13 6 -5 6 16 23 15 23 -2 0 -8 7 -16 15 -20 12
-4 13 -2 6 12 -6 11 -6 24 -1 32 7 12 10 12 16 -3 7 -19 35 -24 31 -4 -1 8 9
11 33 9 19 -1 58 7 87 19 29 12 59 19 68 16 8 -4 17 -3 19 2 6 9 124 7 149 -4
10 -4 17 -3 17 4 0 6 9 11 20 11 11 0 20 -4 20 -8 0 -12 125 5 152 20 13 6 28
13 35 14 11 2 114 46 181 77 12 6 22 14 22 19 0 4 6 8 13 8 8 0 19 11 25 25 6
14 17 25 24 25 7 0 31 3 52 7 27 4 37 3 32 -5 -3 -5 0 -12 6 -15 9 -3 2 -15
-18 -33 -34 -33 -79 -94 -68 -94 4 0 15 9 25 21 l18 21 7 -26 c6 -25 23 -36
25 -16 1 6 2 14 3 19 2 18 16 24 16 8 0 -20 11 -22 28 -5 10 10 14 8 19 -10 8
-31 29 -22 26 11 -2 31 23 38 30 10 3 -11 5 -7 6 10 0 15 -3 27 -9 27 -5 0
-10 5 -10 10 0 6 7 10 15 10 8 0 15 7 15 15 0 18 12 19 28 3 9 -9 12 -6 12 14
0 17 7 27 20 31 12 3 20 14 20 26 0 14 6 21 18 21 10 0 24 6 30 12 10 10 15
10 21 -1 5 -8 11 -9 15 -3 11 18 15 135 6 153 -6 10 -11 36 -12 58 -1 22 -5
38 -10 35 -10 -6 -10 -1 -2 20 8 22 11 21 31 -16z m-1908 13 c10 -6 10 -10 1
-16 -7 -4 -19 0 -28 9 -14 13 -14 16 -2 16 8 0 21 -4 29 -9z m350 -17 c-14
-18 -24 -11 -15 11 3 9 11 13 16 10 8 -5 7 -11 -1 -21z m-284 2 c33 -14 51
-32 20 -20 -9 4 -15 0 -15 -7 0 -9 -3 -10 -8 -3 -4 6 -15 13 -24 17 -10 3 -18
11 -18 17 0 13 4 13 45 -4z m3055 -55 c0 -19 -22 -23 -38 -7 -15 15 -14 16 11
16 15 0 27 -4 27 -9z m-2005 -21 c4 -6 -7 -10 -24 -10 -17 0 -31 5 -31 10 0 6
11 10 24 10 14 0 28 -4 31 -10z m1912 -139 c13 -11 22 -25 18 -31 -8 -13 -42
-13 -50 0 -3 6 -34 10 -68 11 -62 0 -116 21 -125 47 -6 20 27 13 38 -8 6 -11
15 -20 21 -20 6 0 6 7 -1 20 -9 17 -6 24 15 44 15 14 33 22 40 20 7 -3 19 5
25 17 12 21 13 20 37 -29 13 -28 36 -61 50 -71z m-744 65 c32 -33 47 -61 61
-113 10 -37 23 -74 29 -81 5 -6 11 -42 13 -80 7 -121 23 -247 35 -278 6 -16
13 -42 15 -58 2 -16 10 -34 18 -40 18 -14 32 -71 15 -60 -9 5 -10 2 -4 -12 12
-29 5 -96 -16 -151 -12 -31 -11 -36 2 -28 17 11 59 -4 60 -23 1 -16 2 -16 6 1
3 10 14 17 29 17 14 0 27 7 31 18 7 19 50 62 62 62 4 0 16 -9 26 -20 10 -11
22 -20 26 -20 11 0 50 -40 74 -75 15 -23 19 -43 16 -85 -4 -64 -7 -70 -63 -98
-60 -29 -95 -27 -103 7 -4 14 -15 40 -26 57 -18 30 -21 31 -60 23 -22 -5 -44
-7 -50 -4 -24 15 -94 -21 -190 -99 -8 -7 -29 -19 -47 -27 -17 -7 -33 -21 -35
-30 -3 -12 -13 -15 -38 -12 -26 3 -30 2 -19 -6 12 -9 10 -11 -12 -11 -16 0
-28 5 -28 11 0 6 -8 8 -18 5 -11 -4 -34 0 -53 7 -19 8 -43 18 -54 22 -11 5
-23 8 -27 7 -4 -1 -31 3 -61 9 -53 9 -177 13 -267 7 -40 -3 -47 0 -64 26 -16
26 -19 28 -28 13 -11 -21 26 -102 57 -124 112 -77 159 -103 166 -91 6 9 9 8 9
-6 0 -18 1 -18 19 -2 24 22 20 35 -23 63 -27 18 -33 26 -29 48 5 25 7 26 52
19 25 -4 54 -8 64 -8 9 0 17 -4 17 -8 0 -5 18 -5 40 -2 54 9 130 -27 130 -62
0 -39 -41 -74 -87 -74 -22 0 -69 -9 -104 -20 -35 -12 -78 -20 -96 -18 -18 1
-35 -1 -39 -5 -4 -4 -19 -7 -32 -7 -14 0 -22 -3 -19 -7 11 -10 -64 -42 -100
-43 -18 0 -33 -4 -33 -8 0 -14 -81 -50 -127 -57 -24 -4 -45 -11 -49 -16 -3 -5
-18 -9 -34 -9 -19 0 -42 -12 -67 -35 -21 -19 -58 -44 -83 -56 -25 -12 -53 -28
-63 -37 -10 -9 -33 -21 -50 -27 -21 -7 -32 -17 -31 -28 1 -9 -3 -17 -10 -17
-15 0 -18 -103 -3 -112 6 -4 8 -11 3 -15 -5 -4 -11 -2 -13 5 -10 26 -23 10
-23 -28 0 -33 -3 -40 -20 -40 -11 0 -20 -7 -20 -15 0 -8 -7 -15 -15 -15 -8 0
-15 -6 -15 -14 0 -8 -7 -16 -15 -20 -8 -3 -14 0 -12 6 1 6 -8 11 -20 13 -32 2
-36 10 -22 37 7 12 14 29 15 37 2 7 14 26 28 40 33 34 33 48 1 27 -24 -16 -25
-16 -25 5 0 21 0 21 -18 -1 -19 -23 -42 -21 -42 5 0 7 -6 15 -14 18 -20 8 -27
47 -10 54 8 3 14 10 14 15 0 6 -6 5 -15 -2 -12 -10 -20 -8 -44 12 -17 12 -30
31 -30 41 -1 10 -7 17 -13 16 -38 -5 -43 1 -44 54 -1 28 -5 64 -9 80 -6 22 -4
27 9 27 10 0 14 5 10 11 -4 7 3 19 15 28 l22 17 -25 27 c-15 16 -26 39 -26 53
0 13 -4 24 -9 24 -5 0 -12 16 -15 35 -8 40 -26 57 -26 23 -1 -22 -2 -21 -29
11 -19 23 -30 30 -35 22 -6 -9 -11 -9 -21 -1 -7 6 -20 8 -28 4 -12 -4 -19 3
-26 28 -8 30 -9 31 -10 7 -1 -34 -39 -47 -59 -21 -7 9 -20 16 -28 14 -11 -2
-13 3 -8 24 5 20 4 25 -7 22 -8 -3 -13 -15 -11 -26 2 -12 -2 -22 -9 -22 -7 0
-9 10 -7 25 3 14 0 30 -7 35 -7 6 -16 22 -19 35 -4 14 -11 25 -17 25 -8 0 -8
-4 0 -14 9 -10 8 -16 -4 -26 -12 -10 -16 -9 -21 4 -9 23 -32 20 -37 -6 -3 -14
-5 -9 -6 15 0 20 -5 37 -10 37 -5 0 -13 -17 -19 -37 -9 -38 -9 -38 -20 -13 -9
23 -11 24 -18 6 -4 -11 -8 -37 -8 -58 0 -37 0 -37 -18 -18 -11 11 -25 20 -32
20 -8 0 -16 18 -20 48 -6 48 -36 177 -62 269 -8 29 -17 69 -19 88 -3 20 -14
56 -25 80 -22 49 -25 66 -10 81 6 6 4 20 -7 39 -14 24 -17 63 -19 210 -2 184
12 402 27 420 5 5 9 -3 10 -20 1 -17 3 -22 6 -13 3 13 11 16 36 11 18 -3 36
-9 41 -14 5 -4 14 -5 22 -2 9 3 15 -10 20 -47 5 -39 12 -54 25 -57 19 -5 22
-15 22 -66 -1 -24 2 -27 21 -22 11 4 16 3 11 -2 -6 -4 -12 -19 -13 -33 -1 -19
1 -21 8 -10 9 13 11 13 20 0 8 -13 11 -12 25 5 9 11 14 15 11 10 -2 -6 0 -17
5 -25 8 -11 9 2 6 43 -3 31 -4 57 -2 57 2 0 11 -24 21 -52 82 -252 231 -422
441 -503 65 -26 71 -30 61 -48 -8 -15 -7 -18 3 -15 7 2 26 -7 42 -21 68 -61
286 -85 520 -57 75 9 156 23 180 32 23 9 53 18 67 21 14 4 36 13 50 22 83 51
100 64 100 71 0 5 9 12 21 15 12 4 18 12 15 21 -3 7 10 31 29 51 19 21 35 43
35 48 0 6 10 21 21 35 22 28 63 87 94 135 37 58 95 156 95 160 0 3 14 34 30
70 17 36 30 71 31 78 2 34 57 113 89 129 55 28 77 23 123 -26z m2110 -43 c50
-93 127 -267 133 -299 9 -50 -9 -37 -25 18 -7 24 -43 104 -79 178 -37 74 -67
141 -69 149 -4 28 11 35 18 9 4 -14 14 -39 22 -55z m-3443 -9 c32 -46 33 -68
2 -46 -9 6 -37 21 -62 33 l-44 21 34 18 c19 10 36 18 37 19 1 1 16 -20 33 -45z
m3127 24 c-3 -8 -6 -5 -6 6 -1 11 2 17 5 13 3 -3 4 -12 1 -19z m-2685 0 c9 -7
19 -22 22 -34 6 -19 0 -22 -59 -33 -74 -13 -90 -9 -75 20 6 11 15 17 21 14 5
-4 9 -1 9 4 0 6 9 11 20 11 11 0 20 7 20 15 0 18 20 19 42 3z m204 -57 c-4 -6
-28 -11 -54 -11 -51 0 -48 13 8 28 36 10 57 2 46 -17z m-127 -7 c3 -16 1 -17
-13 -5 -19 16 -21 34 -3 29 6 -3 14 -13 16 -24z m1581 -44 c0 -11 -60 -11
-105 0 -23 6 -15 8 38 9 39 1 67 -3 67 -9z m-2014 -15 c4 -8 15 -15 26 -15 10
0 17 4 13 9 -3 5 -1 12 5 16 6 3 13 -1 16 -9 4 -10 19 -16 41 -16 19 0 32 -4
29 -8 -3 -5 -41 -9 -84 -10 -71 -1 -81 1 -85 18 -3 10 -2 21 1 24 11 11 33 6
38 -9z m3143 -165 c12 -134 0 -553 -18 -640 -6 -25 -10 -80 -11 -122 0 -84
-19 -121 -21 -41 -2 102 1 170 10 223 12 69 14 247 3 254 -10 6 -10 96 0 111
3 6 1 21 -4 35 -9 23 -10 24 -22 8 -7 -10 -16 -15 -19 -11 -4 3 -3 11 2 17 5
6 5 29 1 51 -4 22 -8 33 -9 24 0 -9 -8 -22 -16 -29 -16 -13 -18 -20 41 153 21
59 40 104 44 100 4 -4 12 -64 19 -133z m-2993 85 c-11 -8 -33 -17 -50 -19 -76
-12 -136 -14 -141 -7 -2 5 24 12 60 16 35 3 77 10 92 15 46 14 61 12 39 -5z
m2344 -105 c0 -14 27 -12 33 3 4 9 8 8 16 -3 8 -12 13 -12 23 -2 18 18 25 15
32 -13 4 -14 11 -25 16 -25 6 0 10 -7 10 -15 0 -8 4 -15 10 -15 5 0 7 7 4 15
-4 9 0 15 9 15 8 0 17 -5 19 -12 6 -16 40 -19 57 -5 11 10 13 9 9 -3 -2 -8
-14 -19 -26 -25 -18 -8 -22 -18 -22 -52 0 -24 4 -43 9 -43 5 0 7 9 4 19 -3 11
0 28 6 38 9 15 10 13 11 -15 0 -29 3 -33 21 -27 20 7 20 6 4 -19 -10 -14 -21
-23 -27 -20 -5 3 -8 -2 -6 -12 2 -14 -3 -19 -18 -18 -20 1 -21 -2 -12 -28 8
-21 15 -27 28 -23 10 3 21 1 25 -5 4 -6 -6 -10 -24 -10 -16 0 -36 -7 -45 -15
-8 -8 -30 -18 -48 -21 -18 -3 -42 -9 -53 -14 -57 -22 -143 -33 -260 -33 -142
-1 -261 16 -315 45 -19 10 -39 18 -45 18 -18 0 -98 58 -147 106 -46 45 -60 74
-37 74 5 0 7 -5 4 -11 -4 -6 2 -5 14 3 13 8 19 19 15 30 -3 10 -1 18 5 18 6 0
11 -7 11 -15 0 -8 5 -15 10 -15 6 0 10 7 10 16 0 11 6 15 20 11 11 -3 23 -1
26 5 3 5 11 2 19 -8 8 -12 18 -15 31 -9 10 4 24 7 29 5 6 -2 30 -4 55 -6 25
-2 62 -4 83 -6 20 -2 37 0 37 4 0 5 9 8 21 8 11 0 17 -4 14 -10 -7 -11 36 -13
84 -4 19 4 31 13 31 23 1 9 7 1 15 -16 16 -37 30 -44 22 -12 -5 17 -2 20 15
16 17 -5 19 -2 14 18 -4 15 -1 25 9 29 10 3 15 -1 15 -12 0 -14 2 -15 9 -2 6
8 8 17 5 22 -3 4 7 21 22 38 20 22 36 30 61 30 18 0 33 -4 33 -10z m-133 -32
c-3 -8 -6 -5 -6 6 -1 11 2 17 5 13 3 -3 4 -12 1 -19z m-3589 -22 c-1 -14 -5
-23 -9 -20 -7 4 0 44 7 44 2 0 3 -11 2 -24z m3452 -46 c0 -5 -4 -10 -10 -10
-5 0 -10 5 -10 10 0 6 5 10 10 10 6 0 10 -4 10 -10z m781 -43 c-10 -9 -11 -8
-5 6 3 10 9 15 12 12 3 -3 0 -11 -7 -18z m83 -63 c-5 -30 -9 -34 -14 -20 -3
11 -2 30 4 42 15 31 19 23 10 -22z m-104 26 c0 -5 -5 -10 -11 -10 -5 0 -7 5
-4 10 3 6 8 10 11 10 2 0 4 -4 4 -10z m-24 -42 c4 -7 3 -8 -5 -4 -6 4 -14 1
-17 -8 -3 -8 -12 -17 -20 -20 -11 -4 -10 0 3 19 20 27 29 30 39 13z m-1102
-183 c4 -10 -1 -15 -14 -15 -11 0 -20 7 -20 15 0 8 6 15 14 15 8 0 16 -7 20
-15z m61 -29 c30 -20 75 -29 75 -14 0 9 3 9 12 0 7 -7 27 -12 44 -12 18 0 36
-5 39 -10 4 -6 10 -8 15 -5 4 3 95 -2 202 -10 106 -8 194 -15 196 -15 2 0 0
-5 -4 -12 -5 -8 0 -9 17 -5 22 5 22 5 6 -7 -13 -10 -14 -15 -5 -18 8 -3 13
-22 13 -51 0 -41 -2 -45 -13 -30 -11 16 -14 16 -23 3 -5 -8 -12 -27 -16 -42
-3 -16 -12 -28 -19 -28 -8 0 -14 -4 -14 -10 0 -5 7 -10 16 -10 8 0 12 -5 9
-10 -4 -6 -15 -8 -26 -5 -15 5 -19 1 -19 -19 0 -28 -9 -33 -28 -14 -9 9 -12 9
-12 1 0 -7 -15 -13 -32 -15 -24 -2 -33 -8 -32 -20 1 -10 -5 -17 -15 -16 -42 3
-49 -2 -49 -37 0 -19 -7 -42 -16 -50 -15 -16 -20 -39 -17 -77 1 -9 -3 -19 -9
-23 -5 -3 -10 -25 -10 -49 0 -35 -4 -45 -24 -56 -14 -7 -22 -18 -19 -26 7 -19
-11 -18 -27 1 -7 8 -25 15 -41 15 -15 0 -31 5 -34 10 -5 8 -11 8 -20 0 -7 -6
-21 -7 -30 -3 -14 5 -16 3 -11 -8 4 -8 -1 -4 -12 8 -21 23 -50 32 -70 20 -12
-8 -16 -3 -25 40 -3 15 -1 20 9 16 8 -3 14 1 14 9 0 8 9 23 20 33 15 14 19 26
15 46 -3 15 -1 30 4 34 15 9 14 26 -1 23 -9 -2 -14 16 -16 57 -2 43 -8 64 -23
78 -10 10 -24 37 -30 62 -6 24 -20 51 -30 61 -10 9 -19 23 -19 30 0 7 -6 17
-14 21 -8 4 -18 24 -23 43 -15 59 15 93 97 109 3 1 14 -5 25 -13z m-2085 -6
c12 -8 9 -10 -13 -10 -16 0 -26 4 -22 10 8 12 16 12 35 0z m250 -30 c-20 -13
-33 -13 -25 0 3 6 14 10 23 10 15 0 15 -2 2 -10z m2490 -50 c0 -5 -7 -10 -15
-10 -8 0 -15 5 -15 10 0 6 7 10 15 10 8 0 15 -4 15 -10z m-8 -62 c-10 -22 -11
-21 -11 12 -1 26 2 31 11 22 8 -8 8 -17 0 -34z m-2 -38 c0 -5 -5 -10 -11 -10
-5 0 -7 5 -4 10 3 6 8 10 11 10 2 0 4 -4 4 -10z m-3593 -72 c-3 -7 -5 -2 -5
12 0 14 2 19 5 13 2 -7 2 -19 0 -25z m4143 -215 c0 -18 -4 -33 -10 -33 -5 0
-10 21 -10 48 0 34 3 43 10 32 5 -8 10 -30 10 -47z m-3673 -49 c-3 -3 -12 -4
-19 -1 -8 3 -5 6 6 6 11 1 17 -2 13 -5z m153 -169 c0 -8 -7 -15 -15 -15 -26 0
-18 20 13 29 1 1 2 -6 2 -14z m1627 -67 c-3 -8 -6 -5 -6 6 -1 11 2 17 5 13 3
-3 4 -12 1 -19z m-77 2 c0 -5 -4 -10 -10 -10 -5 0 -10 5 -10 10 0 6 5 10 10
10 6 0 10 -4 10 -10z m-35 -72 c44 0 91 4 105 9 28 10 170 -4 170 -17 0 -13
-49 -28 -145 -44 -37 -6 -65 -18 -65 -28 0 -5 -4 -7 -9 -4 -5 3 -14 -1 -21 -9
-11 -13 -14 -13 -26 2 -9 14 -25 17 -63 16 -31 -1 -51 2 -51 8 0 7 -10 9 -26
5 -33 -9 -94 11 -94 30 0 8 -6 14 -12 15 -10 0 -10 2 0 6 6 2 12 11 12 18 0
29 32 33 89 12 39 -14 80 -20 136 -19z m-1565 -12 c0 -3 -4 -8 -10 -11 -5 -3
-10 -1 -10 4 0 6 5 11 10 11 6 0 10 -2 10 -4z m1180 -19 c-1 -7 -9 -22 -19
-34 -20 -24 -94 -49 -99 -33 -2 6 -8 10 -13 10 -6 0 -7 -4 -4 -10 3 -5 1 -10
-4 -10 -6 0 -11 4 -11 10 0 13 52 60 61 54 4 -2 10 0 14 6 3 5 17 7 31 4 18
-5 24 -2 24 11 0 9 5 13 10 10 6 -3 10 -12 10 -18z m-1003 -164 c2 -6 -8 -13
-22 -15 -27 -6 -32 1 -13 20 14 14 30 11 35 -5z m73 -143 c0 -5 -2 -10 -4 -10
-3 0 -8 5 -11 10 -3 6 -1 10 4 10 6 0 11 -4 11 -10z m995 -10 c-4 -6 7 -10 27
-10 l33 -1 -30 -14 -30 -13 39 -1 c31 -1 37 2 32 15 -5 12 -2 15 10 10 9 -4
23 -1 30 5 20 16 212 8 223 -10 5 -8 14 -10 20 -7 11 7 103 15 201 18 25 1 61
-4 81 -9 21 -6 43 -7 52 -2 10 6 17 4 21 -6 3 -8 12 -12 20 -9 8 3 24 1 35 -6
14 -7 21 -7 21 0 0 15 26 12 40 -5 16 -19 1 -36 -109 -131 -52 -44 -190 -76
-295 -68 -27 2 -54 0 -60 -6 -7 -5 -27 -5 -52 0 -22 5 -74 12 -115 15 -69 4
-139 22 -155 38 -4 4 -18 7 -30 7 -24 0 -44 19 -22 21 7 0 -2 5 -20 10 -18 5
-30 14 -27 18 5 9 -31 24 -51 22 -7 -1 -15 9 -19 21 -6 19 -8 20 -12 6 -6 -24
-19 -23 -26 2 -3 13 -17 22 -36 26 -17 4 -31 13 -31 20 0 8 6 11 15 8 11 -4
15 0 15 16 0 21 3 22 73 17 39 -2 81 -1 92 4 29 11 47 11 40 -1z m-215 -10 c0
-5 -8 -10 -17 -10 -15 0 -16 2 -3 10 19 12 20 12 20 0z m-655 -50 c-3 -5 -10
-10 -16 -10 -5 0 -9 5 -9 10 0 6 7 10 16 10 8 0 12 -4 9 -10z m347 -51 c14 -8
23 -8 31 0 17 17 41 13 67 -9 13 -11 29 -20 35 -20 7 0 16 -7 19 -16 4 -10 12
-14 22 -10 12 5 14 1 8 -16 -6 -21 -6 -21 10 -5 24 23 27 21 16 -8 -7 -19 -6
-23 5 -19 9 4 17 -5 23 -28 6 -22 14 -33 25 -32 10 1 17 -6 17 -16 0 -10 7
-20 15 -24 8 -3 15 -12 15 -21 0 -18 20 -21 21 -2 0 6 5 0 11 -15 5 -16 16
-28 23 -28 8 0 19 -9 25 -20 6 -11 17 -20 25 -20 8 0 15 -6 15 -14 0 -10 20
-16 71 -21 61 -6 72 -10 81 -31 10 -22 18 -24 77 -25 36 0 82 -3 101 -5 19 -3
53 -6 76 -7 22 -1 49 -8 58 -16 20 -17 54 -22 62 -9 9 14 157 7 179 -8 25 -18
35 -18 35 0 0 11 13 15 50 14 28 0 57 6 65 12 10 8 15 9 15 2 0 -6 6 -9 14 -6
8 3 17 0 22 -7 4 -7 2 -15 -4 -17 -7 -2 -12 -11 -12 -20 0 -12 3 -13 12 -4 21
21 33 13 33 -20 0 -22 -10 -41 -32 -64 -31 -32 -52 -31 -39 1 3 8 1 15 -4 15
-6 0 -10 -11 -10 -24 0 -13 -8 -27 -17 -31 -20 -7 -29 -4 -25 8 1 5 -2 6 -8 2
-5 -3 -10 -1 -10 6 0 7 -11 -2 -24 -20 -14 -18 -22 -39 -19 -46 7 -19 -57 -87
-75 -80 -8 3 -26 -4 -42 -15 -15 -11 -35 -20 -44 -20 -9 0 -16 -4 -16 -9 0
-25 -77 -17 -117 12 -9 7 -13 4 -13 -9 -1 -18 -1 -18 -18 1 -11 13 -30 20 -57
21 -22 1 -32 -1 -22 -3 34 -9 19 -33 -20 -32 -62 0 -87 -5 -100 -21 -10 -13
-12 -10 -13 17 0 30 -1 31 -25 20 -14 -7 -25 -18 -25 -24 0 -17 -15 -16 -57 3
-21 11 -32 22 -29 31 5 11 1 11 -15 2 -14 -7 -19 -7 -15 -1 4 7 -12 13 -39 18
-25 3 -52 13 -60 20 -7 8 -18 14 -24 14 -6 0 -12 10 -12 23 -1 18 -2 18 -6 4
-3 -11 -10 -16 -20 -13 -8 3 -19 6 -24 6 -6 0 -7 5 -3 12 12 19 -24 36 -67 31
-37 -5 -53 7 -29 22 17 11 11 37 -10 42 -11 3 -20 10 -20 15 0 6 -14 27 -32
46 l-31 36 7 -29 c6 -23 5 -27 -5 -18 -7 7 -11 37 -10 72 1 35 -3 61 -9 61 -5
0 -10 -20 -10 -45 0 -25 -4 -45 -10 -45 -5 0 -10 25 -10 55 0 48 -4 58 -30 82
-16 14 -30 32 -30 40 0 7 -9 13 -19 13 -10 0 -21 7 -25 15 -3 8 -12 12 -21 9
-10 -4 -15 0 -15 13 0 24 -18 43 -35 37 -7 -3 -15 4 -18 15 -3 13 -1 19 5 15
6 -4 8 1 5 12 -3 11 -8 44 -11 74 -3 30 -3 47 0 38 5 -15 9 -13 31 13 23 26
31 30 60 24 20 -3 33 -2 33 5 0 5 -5 10 -11 10 -5 0 -7 5 -4 10 8 13 12 13 37
-1z m-1052 -238 c0 -21 -13 -4 -17 22 -2 17 -1 19 7 7 5 -8 10 -21 10 -29z
m1300 -435 c0 -2 -7 -6 -15 -10 -8 -3 -15 -1 -15 4 0 6 7 10 15 10 8 0 15 -2
15 -4z m-1505 -136 c3 -5 1 -10 -4 -10 -6 0 -11 5 -11 10 0 6 2 10 4 10 3 0 8
-4 11 -10z m632 -152 c-3 -8 -6 -5 -6 6 -1 11 2 17 5 13 3 -3 4 -12 1 -19z
m-724 -18 c-12 -9 -19 -21 -16 -24 4 -4 -2 -23 -12 -43 -15 -27 -17 -37 -7
-41 19 -6 14 -22 -8 -22 -13 0 -18 -5 -14 -15 4 -9 0 -15 -10 -15 -17 0 -18 1
-20 43 -1 17 2 26 9 23 8 -3 10 4 7 19 -3 16 6 34 28 59 18 19 37 33 41 30 5
-3 9 0 9 7 0 7 3 9 8 5 4 -4 -3 -16 -15 -26z m724 -62 c-3 -8 -6 -5 -6 6 -1
11 2 17 5 13 3 -3 4 -12 1 -19z m83 -8 c0 -5 -2 -10 -4 -10 -3 0 -8 5 -11 10
-3 6 -1 10 4 10 6 0 11 -4 11 -10z m-875 -110 c17 -7 14 -9 -13 -9 -20 -1 -31
3 -27 9 7 12 13 12 40 0z m-5 -50 c0 -5 -5 -10 -11 -10 -5 0 -7 5 -4 10 3 6 8
10 11 10 2 0 4 -4 4 -10z m4390 -6 c0 -8 -4 -12 -10 -9 -5 3 -10 10 -10 16 0
5 5 9 10 9 6 0 10 -7 10 -16z m-3596 -148 c-3 -14 -12 -26 -20 -26 -18 0 -18
10 2 38 20 28 27 23 18 -12z m3883 -57 c6 -6 8 -19 6 -30 -5 -18 -6 -19 -19
-2 -24 32 -13 58 13 32z m-28 -59 c0 -8 -6 -1 -13 15 -7 17 -11 34 -8 40 6 10
20 -27 21 -55z m85 -39 c3 -5 -1 -11 -9 -15 -9 -3 -15 0 -15 9 0 16 16 20 24
6z m-3916 -86 c-4 -17 -1 -25 8 -25 8 0 14 -4 14 -10 0 -5 -2 -10 -4 -10 -2 0
-11 -3 -20 -6 -12 -5 -16 0 -16 19 0 14 -5 27 -12 29 -16 6 -1 28 19 28 11 0
14 -7 11 -25z m3956 -24 c-6 -6 -24 19 -24 34 1 6 7 1 15 -9 8 -11 12 -22 9
-25z m-3844 -5 c0 -3 -4 -8 -10 -11 -5 -3 -10 -1 -10 4 0 6 5 11 10 11 6 0 10
-2 10 -4z m3850 -20 c0 -11 -19 -15 -25 -6 -3 5 1 10 9 10 9 0 16 -2 16 -4z
m-3910 -91 c0 -8 -4 -15 -10 -15 -5 0 -10 7 -10 15 0 8 5 15 10 15 6 0 10 -7
10 -15z m-1563 -51 c-3 -3 -12 -4 -19 -1 -8 3 -5 6 6 6 11 1 17 -2 13 -5z
m1720 -296 c-2 -13 -4 -5 -4 17 -1 22 1 32 4 23 2 -10 2 -28 0 -40z m1013 -29
c0 -5 -4 -9 -10 -9 -5 0 -10 7 -10 16 0 8 5 12 10 9 6 -3 10 -10 10 -16z
m-930 -45 c0 -8 -4 -14 -10 -14 -5 0 -10 9 -10 21 0 11 5 17 10 14 6 -3 10
-13 10 -21z m-38 -49 c-12 -22 -27 -2 -18 22 5 12 10 13 17 6 7 -7 8 -17 1
-28z m68 -35 c0 -5 -5 -10 -11 -10 -5 0 -7 5 -4 10 3 6 8 10 11 10 2 0 4 -4 4
-10z m58 -71 c-2 -6 -8 -10 -13 -10 -5 0 -11 4 -13 10 -2 6 4 11 13 11 9 0 15
-5 13 -11z m813 -133 c12 -13 12 -39 -1 -31 -5 3 -10 1 -10 -4 0 -6 -7 -11
-17 -11 -15 0 -15 2 1 19 17 19 17 19 -1 15 -11 -3 -25 2 -32 10 -12 14 -10
16 13 16 20 0 26 5 27 23 2 20 2 20 6 -3 3 -14 9 -29 14 -34z m4172 -23 c-7
-2 -19 -2 -25 0 -7 3 -2 5 12 5 14 0 19 -2 13 -5z m-8567 -58 c-23 -17 -42
-19 -51 -6 -3 5 9 12 27 14 18 2 35 4 38 5 3 1 -4 -5 -14 -13z m8764 -7 c0 -6
-10 -8 -22 -4 -13 3 -29 6 -36 6 -7 0 -11 4 -8 8 7 12 66 2 66 -10z m-9050
-28 c0 -5 -12 -10 -27 -10 -22 0 -25 2 -13 10 20 13 40 13 40 0z m9114 -5 c11
-8 18 -17 15 -19 -7 -7 -49 13 -49 24 0 14 11 12 34 -5z m92 -43 c18 -9 48
-25 68 -36 29 -15 34 -21 25 -32 -6 -8 -17 -14 -23 -14 -6 0 -4 5 4 10 14 9 7
15 -14 11 -17 -4 -91 39 -104 59 -16 25 0 26 44 2z m-9286 -2 c0 -5 -5 -10
-11 -10 -5 0 -7 5 -4 10 3 6 8 10 11 10 2 0 4 -4 4 -10z m-94 -28 c-8 -13 -46
-22 -46 -11 0 5 9 9 20 9 11 0 20 5 20 12 0 6 3 9 6 5 3 -3 3 -10 0 -15z
m5598 -37 c-4 -8 -8 -15 -10 -15 -2 0 -4 7 -4 15 0 8 4 15 10 15 5 0 7 -7 4
-15z m-5694 -11 c0 -2 -7 -4 -15 -4 -8 0 -15 4 -15 10 0 5 7 7 15 4 8 -4 15
-8 15 -10z m-50 -4 c0 -5 -4 -10 -10 -10 -5 0 -10 5 -10 10 0 6 5 10 10 10 6
0 10 -4 10 -10z m9655 -1 c11 -17 -1 -21 -15 -4 -8 9 -8 15 -2 15 6 0 14 -5
17 -11z m-9698 -24 c-9 -8 -17 -20 -19 -26 -3 -9 -9 -9 -24 -1 -11 6 -13 12
-6 12 7 0 20 7 28 15 9 8 20 15 25 15 6 0 4 -7 -4 -15z m-92 -42 c-11 -3 -23
-10 -27 -16 -4 -6 -10 -8 -15 -4 -10 11 17 27 42 26 l20 -1 -20 -5z m9889 -1
c2 -4 -2 -15 -9 -25 -11 -15 -17 -16 -34 -7 -17 9 -19 13 -9 25 14 15 44 20
52 7z m87 -52 c6 0 7 -4 4 -10 -3 -5 3 -10 14 -10 13 0 21 -6 21 -17 0 -12 -3
-14 -8 -6 -4 6 -19 15 -35 18 -15 4 -24 11 -21 16 3 5 -2 9 -10 9 -22 0 -20
18 2 22 9 2 18 -2 20 -9 2 -7 8 -13 13 -13z m-10045 4 c-3 -18 -18 -28 -58
-38 -21 -5 -28 -3 -28 9 0 14 15 19 50 17 8 0 19 6 23 14 11 19 16 18 13 -2z
m6914 -13 c0 -4 -18 -20 -40 -35 -46 -30 -52 -24 -13 16 26 27 53 37 53 19z
m3262 -93 c10 -10 18 -25 18 -34 0 -8 5 -12 10 -9 6 4 8 12 4 18 -3 7 8 -4 25
-23 17 -19 31 -31 31 -27 0 10 35 -23 35 -33 0 -8 32 -40 40 -40 9 0 55 -52
55 -62 0 -5 5 -6 10 -3 6 3 10 -3 10 -14 0 -25 -8 -26 -29 -6 -90 82 -152 137
-181 161 -19 16 -37 31 -40 35 -3 3 -20 14 -37 24 -35 20 -45 39 -15 28 16 -6
16 -5 0 14 -10 11 -18 23 -18 27 0 8 56 -30 82 -56z m-10337 15 c-16 -14 -36
-23 -46 -20 -11 3 -22 1 -25 -4 -3 -5 -14 -9 -26 -9 -13 0 -18 -5 -15 -13 6
-17 -1 -28 -31 -45 -18 -10 -22 -10 -20 0 2 8 -5 12 -16 10 -17 -3 -18 -2 -7
12 7 9 17 14 21 11 13 -8 40 6 40 21 0 7 11 16 25 20 13 3 29 12 36 20 6 8 24
14 40 14 16 0 29 5 29 11 0 5 5 7 12 3 7 -5 2 -15 -17 -31z m6562 -105 c-3 -8
-6 -5 -6 6 -1 11 2 17 5 13 3 -3 4 -12 1 -19z m4053 -168 c0 -5 -2 -10 -4 -10
-3 0 -8 5 -11 10 -3 6 -1 10 4 10 6 0 11 -4 11 -10z"/>
<path d="M7166 6651 c-4 -7 -5 -15 -2 -18 9 -9 19 4 14 18 -4 11 -6 11 -12 0z"/>
<path d="M7330 6596 c0 -9 5 -16 10 -16 6 0 10 4 10 9 0 6 -4 13 -10 16 -5 3
-10 -1 -10 -9z"/>
<path d="M7145 6470 c3 -5 11 -10 16 -10 6 0 7 5 4 10 -3 6 -11 10 -16 10 -6
0 -7 -4 -4 -10z"/>
<path d="M4140 6305 c0 -8 5 -15 10 -15 6 0 10 7 10 15 0 8 -4 15 -10 15 -5 0
-10 -7 -10 -15z"/>
<path d="M7385 6270 c3 -5 8 -10 11 -10 2 0 4 5 4 10 0 6 -5 10 -11 10 -5 0
-7 -4 -4 -10z"/>
<path d="M4312 6249 c-15 -23 -16 -56 -2 -64 6 -3 10 1 10 10 0 9 7 26 15 39
13 19 13 25 2 29 -7 3 -19 -3 -25 -14z"/>
<path d="M4270 6240 c0 -5 5 -10 10 -10 6 0 10 5 10 10 0 6 -4 10 -10 10 -5 0
-10 -4 -10 -10z"/>
<path d="M4195 6221 c-8 -27 11 -54 21 -28 3 9 1 24 -4 33 -9 16 -10 15 -17
-5z"/>
<path d="M4015 6061 c-3 -5 -1 -12 5 -16 5 -3 10 1 10 9 0 18 -6 21 -15 7z"/>
<path d="M5530 5939 c0 -5 5 -7 10 -4 6 3 10 8 10 11 0 2 -4 4 -10 4 -5 0 -10
-5 -10 -11z"/>
<path d="M4095 5870 c3 -5 8 -10 11 -10 2 0 4 5 4 10 0 6 -5 10 -11 10 -5 0
-7 -4 -4 -10z"/>
<path d="M4995 5020 c3 -5 8 -10 11 -10 2 0 4 5 4 10 0 6 -5 10 -11 10 -5 0
-7 -4 -4 -10z"/>
<path d="M4541 4904 c0 -11 3 -14 6 -6 3 7 2 16 -1 19 -3 4 -6 -2 -5 -13z"/>
<path d="M4578 4913 c-23 -6 -23 -12 6 -48 21 -25 25 -27 31 -13 9 22 3 61
-10 63 -5 2 -18 1 -27 -2z"/>
<path d="M4161 4294 c0 -11 3 -14 6 -6 3 7 2 16 -1 19 -3 4 -6 -2 -5 -13z"/>
<path d="M5867 4239 c7 -7 15 -10 18 -7 3 3 -2 9 -12 12 -14 6 -15 5 -6 -5z"/>
<path d="M4640 3961 c0 -10 19 -25 25 -20 1 2 -3 10 -11 17 -8 7 -14 8 -14 3z"/>
<path d="M4630 3845 c0 -8 2 -15 4 -15 2 0 6 7 10 15 3 8 1 15 -4 15 -6 0 -10
-7 -10 -15z"/>
<path d="M4630 3751 c0 -6 5 -13 10 -16 6 -3 10 1 10 9 0 9 -4 16 -10 16 -5 0
-10 -4 -10 -9z"/>
<path d="M4850 3465 c0 -9 5 -15 11 -13 6 2 11 8 11 13 0 5 -5 11 -11 13 -6 2
-11 -4 -11 -13z"/>
<path d="M7570 5011 c0 -6 5 -13 10 -16 6 -3 10 1 10 9 0 9 -4 16 -10 16 -5 0
-10 -4 -10 -9z"/>
<path d="M7647 4773 c5 -12 2 -15 -10 -10 -8 3 -20 0 -26 -7 -16 -19 -3 -26
30 -14 31 11 38 32 15 41 -11 4 -13 1 -9 -10z"/>
<path d="M7275 4270 c-3 -5 1 -10 10 -10 9 0 13 5 10 10 -3 6 -8 10 -10 10 -2
0 -7 -4 -10 -10z"/>
<path d="M6962 4225 c0 -16 2 -22 5 -12 2 9 2 23 0 30 -3 6 -5 -1 -5 -18z"/>
<path d="M7220 4230 c0 -5 5 -10 10 -10 6 0 10 5 10 10 0 6 -4 10 -10 10 -5 0
-10 -4 -10 -10z"/>
<path d="M7205 4190 c-3 -5 1 -10 10 -10 9 0 13 5 10 10 -3 6 -8 10 -10 10 -2
0 -7 -4 -10 -10z"/>
<path d="M5970 3420 c0 -5 5 -10 11 -10 5 0 7 5 4 10 -3 6 -8 10 -11 10 -2 0
-4 -4 -4 -10z"/>
<path d="M4190 8410 c-8 -5 -11 -12 -7 -16 4 -4 15 0 24 9 18 18 8 23 -17 7z"/>
<path d="M3898 8168 c-16 -5 -28 -14 -28 -19 0 -14 13 -10 40 11 28 22 27 23
-12 8z"/>
<path d="M8060 7654 c0 -8 5 -12 10 -9 6 4 8 11 5 16 -9 14 -15 11 -15 -7z"/>
<path d="M3304 5650 c-18 -4 -46 -17 -63 -29 -53 -38 -70 -86 -87 -244 -23
-217 -3 -400 43 -383 9 4 20 1 25 -6 19 -31 26 22 21 167 l-6 152 37 28 37 28
24 -23 25 -23 6 31 c4 18 10 32 14 32 4 0 10 13 12 30 3 21 -2 35 -16 49 -75
71 -125 111 -140 111 -26 0 -14 22 22 43 35 20 95 25 115 9 6 -5 23 -13 37
-17 28 -9 101 -54 112 -70 5 -6 13 -4 23 6 15 15 11 19 -49 53 -61 34 -140 67
-155 65 -3 -1 -20 -4 -37 -9z m-124 -477 c0 -27 3 -58 6 -70 5 -17 2 -23 -10
-23 -13 0 -16 12 -16 70 0 40 4 70 10 70 6 0 10 -21 10 -47z"/>
<path d="M3742 5140 c0 -19 2 -27 5 -17 2 9 2 25 0 35 -3 9 -5 1 -5 -18z"/>
<path d="M3206 4887 c3 -10 9 -15 12 -12 3 3 0 11 -7 18 -10 9 -11 8 -5 -6z"/>
<path d="M3220 4856 c0 -2 14 -41 31 -85 41 -107 61 -121 24 -16 -22 63 -55
123 -55 101z"/>
<path d="M3453 4744 c-3 -9 0 -20 8 -24 7 -5 10 -12 6 -16 -4 -4 -15 3 -26 14
-21 25 -31 28 -31 8 0 -8 -6 -17 -12 -19 -10 -4 -10 -8 -2 -14 6 -4 15 -18 18
-31 10 -31 44 -66 85 -86 28 -15 36 -16 47 -4 17 18 7 65 -17 71 -10 3 -19 13
-19 23 0 10 -10 28 -22 41 -17 19 -20 26 -9 32 10 6 9 10 -4 14 -9 4 -18 1
-22 -9z"/>
<path d="M3301 4669 c-1 -4 15 -39 34 -78 19 -39 35 -73 35 -76 0 -24 139
-197 151 -189 17 10 9 33 -13 36 -14 2 -24 11 -26 23 -2 18 -1 18 8 3 6 -10
18 -14 30 -11 25 7 25 10 1 55 -14 28 -21 34 -30 25 -8 -8 -11 -7 -11 7 0 9
-4 15 -9 12 -12 -8 -71 23 -71 36 0 6 -17 36 -37 68 -21 31 -43 66 -50 76 -6
10 -12 16 -12 13z"/>
<path d="M3777 4503 c-4 -3 -7 -14 -7 -24 0 -13 5 -16 16 -12 11 4 12 8 4 13
-7 4 -9 13 -6 19 8 12 3 15 -7 4z"/>
<path d="M3552 4282 c16 -20 24 -24 26 -15 2 8 -5 21 -15 28 -30 24 -36 17
-11 -13z"/>
<path d="M3640 4118 c1 -7 7 -24 15 -38 15 -26 19 -12 9 28 -7 23 -24 31 -24
10z"/>
<path d="M3931 3924 c0 -11 3 -14 6 -6 3 7 2 16 -1 19 -3 4 -6 -2 -5 -13z"/>
<path d="M3960 3714 c0 -12 7 -27 15 -34 19 -16 19 -10 0 26 -13 25 -15 26
-15 8z"/>
<path d="M8180 2801 c0 -12 5 -21 10 -21 6 0 10 6 10 14 0 8 -4 18 -10 21 -5
3 -10 -3 -10 -14z"/>
<path d="M7827 2790 c3 -11 7 -20 8 -20 1 0 5 9 8 20 3 12 0 20 -8 20 -8 0
-11 -8 -8 -20z"/>
<path d="M8011 2754 c0 -11 3 -14 6 -6 3 7 2 16 -1 19 -3 4 -6 -2 -5 -13z"/>
<path d="M8130 2310 c0 -5 5 -10 10 -10 6 0 10 5 10 10 0 6 -4 10 -10 10 -5 0
-10 -4 -10 -10z"/>
<path d="M8240 2190 c0 -11 7 -20 15 -20 13 0 14 4 5 20 -6 11 -13 20 -15 20
-3 0 -5 -9 -5 -20z"/>
<path d="M4921 2164 c0 -11 3 -14 6 -6 3 7 2 16 -1 19 -3 4 -6 -2 -5 -13z"/>
<path d="M8440 2160 c0 -5 5 -10 10 -10 6 0 10 5 10 10 0 6 -4 10 -10 10 -5 0
-10 -4 -10 -10z"/>
<path d="M4652 2068 c6 -18 28 -21 28 -4 0 9 -7 16 -16 16 -9 0 -14 -5 -12
-12z"/>
<path d="M4717 2049 c4 -13 8 -18 11 -10 2 7 -1 18 -6 23 -8 8 -9 4 -5 -13z"/>
<path d="M8560 1940 c-8 -5 -11 -12 -7 -16 4 -4 13 -2 19 4 15 15 7 24 -12 12z"/>
<path d="M5167 1924 c-8 -8 1 -24 14 -24 5 0 9 7 9 15 0 15 -12 20 -23 9z"/>
<path d="M8577 1895 c-12 -25 -13 -35 -4 -35 15 0 36 45 28 59 -4 6 -14 -4
-24 -24z"/>
<path d="M8631 1814 c0 -11 3 -14 6 -6 3 7 2 16 -1 19 -3 4 -6 -2 -5 -13z"/>
<path d="M4815 1780 c3 -5 8 -10 11 -10 2 0 4 5 4 10 0 6 -5 10 -11 10 -5 0
-7 -4 -4 -10z"/>
<path d="M4812 1710 c14 -22 24 -19 15 5 -4 8 -11 15 -17 15 -6 0 -6 -7 2 -20z"/>
<path d="M3408 1643 c7 -3 16 -2 19 1 4 3 -2 6 -13 5 -11 0 -14 -3 -6 -6z"/>
<path d="M4862 1488 c-15 -15 -16 -38 -2 -38 12 0 23 25 18 40 -2 7 -7 7 -16
-2z"/>
<path d="M5510 1444 c0 -8 5 -12 10 -9 6 3 10 10 10 16 0 5 -4 9 -10 9 -5 0
-10 -7 -10 -16z"/>
<path d="M2980 1360 c0 -5 4 -10 9 -10 6 0 13 5 16 10 3 6 -1 10 -9 10 -9 0
-16 -4 -16 -10z"/>
<path d="M5614 1345 c-9 -22 1 -29 15 -11 8 10 9 16 1 21 -5 3 -13 -1 -16 -10z"/>
<path d="M5643 1315 c-12 -14 -18 -25 -14 -25 12 0 51 31 51 41 0 16 -14 10
-37 -16z"/>
<path d="M5560 1304 c0 -8 5 -12 10 -9 6 4 8 11 5 16 -9 14 -15 11 -15 -7z"/>
<path d="M5659 1291 l-24 -19 38 -38 c37 -38 46 -39 27 -3 -10 17 -7 19 20 19
18 0 29 4 25 10 -3 6 -15 10 -26 10 -13 0 -19 6 -17 16 4 25 -16 27 -43 5z"/>
<path d="M5635 1234 c9 -9 19 -13 23 -10 3 4 0 11 -8 16 -24 15 -33 11 -15 -6z"/>
<path d="M5671 1174 c0 -11 3 -14 6 -6 3 7 2 16 -1 19 -3 4 -6 -2 -5 -13z"/>
<path d="M5122 1090 c0 -14 2 -19 5 -12 2 6 2 18 0 25 -3 6 -5 1 -5 -13z"/>
<path d="M5600 1100 c0 -13 20 -13 40 0 12 8 9 10 -12 10 -16 0 -28 -4 -28
-10z"/>
<path d="M5120 992 c0 -6 -8 -13 -17 -15 -16 -4 -16 -5 -1 -6 18 -1 34 16 24
26 -3 4 -6 1 -6 -5z"/>
<path d="M5148 973 c6 -2 18 -2 25 0 6 3 1 5 -13 5 -14 0 -19 -2 -12 -5z"/>
<path d="M5590 942 c0 -12 19 -26 26 -19 2 2 -2 10 -11 17 -9 8 -15 8 -15 2z"/>
</g>
</svg>
