<?xml version="1.0" standalone="no"?>
<!DOCTYPE svg PUBLIC "-//W3C//DTD SVG 20010904//EN"
 "http://www.w3.org/TR/2001/REC-SVG-20010904/DTD/svg10.dtd">
<svg version="1.0" xmlns="http://www.w3.org/2000/svg"
 width="500.000000pt" height="500.000000pt" viewBox="0 0 500.000000 500.000000"
 preserveAspectRatio="xMidYMid meet">

<g transform="translate(0.000000,500.000000) scale(0.100000,-0.100000)"
fill="#000000" stroke="none">
<path d="M2505 3155 c0 -253 1 -355 2 -227 2 128 2 335 0 460 -1 125 -2 20 -2
-233z"/>
<path d="M1605 3190 c-33 -4 -117 -8 -187 -9 -129 -1 -156 -9 -95 -26 58 -18
70 -61 75 -272 l4 -183 49 0 49 0 2 222 3 223 40 14 c22 8 90 16 152 19 94 3
124 1 182 -17 166 -50 257 -223 207 -393 -9 -31 -16 -59 -16 -63 0 -3 21 -5
48 -3 44 3 48 6 67 43 25 52 26 161 2 232 -35 100 -125 176 -250 209 -55 15
-227 17 -332 4z"/>
<path d="M2720 3172 c0 -4 15 -12 33 -17 58 -18 70 -61 77 -275 l5 -185 5 195
5 195 90 -192 90 -193 58 0 c32 0 57 4 55 9 -1 5 -52 113 -113 240 l-110 231
-97 0 c-54 0 -98 -4 -98 -8z"/>
<path d="M3670 2953 c-98 -268 -96 -260 -84 -250 4 4 43 101 86 215 l77 207 0
-212 1 -213 55 0 55 0 0 163 c0 89 5 182 11 207 12 53 43 90 76 90 13 0 23 5
23 10 0 6 -43 10 -108 10 l-108 0 -84 -227z"/>
<path d="M1331 2538 c1 -40 4 -63 6 -50 6 29 39 29 70 0 23 -22 33 -12 11 10
-9 9 -9 15 0 24 7 7 12 25 12 40 0 31 -28 48 -76 48 -23 0 -24 -2 -23 -72z
m84 32 c9 -29 -2 -40 -41 -40 -31 0 -34 2 -34 30 0 28 3 30 34 30 26 0 36 -5
41 -20z"/>
<path d="M1531 2558 c-1 -63 14 -88 54 -88 40 0 55 25 54 88 l-2 57 -7 -59
c-9 -69 -31 -91 -70 -66 -9 5 -17 32 -21 67 l-6 58 -2 -57z"/>
<path d="M1747 2603 c-11 -10 -8 -133 3 -133 6 0 10 9 10 20 0 15 7 20 29 20
56 0 81 55 39 84 -23 16 -69 21 -81 9z m82 -27 c19 -23 2 -46 -35 -46 -31 0
-34 3 -34 30 0 26 3 30 29 30 16 0 34 -6 40 -14z"/>
<path d="M1984 2599 c-21 -34 -62 -129 -56 -129 4 0 13 9 20 20 8 14 23 20 46
20 26 0 36 -5 41 -20 3 -11 11 -20 16 -20 10 0 -4 38 -38 104 -15 30 -22 36
-29 25z m36 -71 c0 -5 -14 -8 -30 -8 l-31 0 17 32 16 32 14 -25 c7 -13 13 -27
14 -31z"/>
<path d="M2762 2540 c-17 -38 -27 -70 -22 -70 5 0 12 9 15 20 5 15 15 20 41
20 23 0 38 -6 46 -20 26 -41 26 -18 1 38 -41 92 -45 93 -81 12z m55 10 c11
-29 10 -30 -18 -30 -33 0 -33 0 -17 35 15 32 21 32 35 -5z"/>
<path d="M3050 2581 c0 -29 -2 -31 -40 -31 -36 0 -40 3 -40 25 0 14 -4 25 -10
25 -6 0 -10 -28 -10 -65 0 -37 4 -65 10 -65 6 0 10 14 10 30 0 28 2 30 40 30
38 0 40 -2 40 -30 0 -16 5 -30 10 -30 6 0 10 28 10 64 0 36 -4 68 -10 71 -6 4
-10 -7 -10 -24z"/>
<path d="M3182 2540 c-17 -38 -27 -70 -22 -70 5 0 12 9 15 20 5 15 15 20 41
20 23 0 38 -6 46 -20 26 -41 26 -18 1 38 -41 92 -45 93 -81 12z m55 10 c11
-29 10 -30 -18 -30 -33 0 -33 0 -17 35 15 32 21 32 35 -5z"/>
<path d="M3350 2600 c0 -5 11 -10 25 -10 23 0 24 -4 28 -62 l3 -63 2 63 c2 59
3 62 27 62 14 0 25 5 25 10 0 6 -25 10 -55 10 -30 0 -55 -4 -55 -10z"/>
<path d="M3570 2597 c-38 -19 -48 -61 -23 -95 40 -53 123 -33 123 31 0 38 -7
50 -37 66 -27 14 -32 14 -63 -2z m75 -23 c23 -24 15 -66 -16 -83 -24 -13 -29
-13 -53 2 -28 19 -36 63 -14 85 17 17 64 15 83 -4z"/>
<path d="M2140 2536 c0 -77 19 -91 22 -16 0 28 1 55 2 62 1 6 -5 13 -11 16
-10 3 -13 -14 -13 -62z"/>
<path d="M2267 2593 c-7 -15 5 -123 14 -123 5 0 9 29 9 65 0 56 -10 82 -23 58z"/>
<path d="M2500 2536 c0 -77 19 -91 22 -16 0 28 1 55 2 62 1 6 -5 13 -11 16
-10 3 -13 -14 -13 -62z"/>
<path d="M2627 2593 c-7 -15 5 -123 14 -123 5 0 9 29 9 65 0 56 -10 82 -23 58z"/>
<path d="M2170 2565 c0 -11 37 -75 44 -75 8 0 48 71 43 76 -3 3 -13 -9 -23
-27 -15 -31 -18 -32 -28 -16 -21 35 -35 52 -36 42z"/>
<path d="M2530 2565 c0 -11 37 -75 44 -75 8 0 48 71 43 76 -3 3 -13 -9 -23
-27 -15 -31 -18 -32 -28 -16 -21 35 -35 52 -36 42z"/>
<path d="M1398 2217 c-5 -178 -19 -220 -78 -249 -34 -17 -32 -17 135 -17 l170
0 -45 22 c-57 28 -65 55 -75 250 l-7 147 -48 0 -47 0 -5 -153z"/>
<path d="M1782 2363 c16 -35 228 -346 256 -375 l36 -38 106 0 105 1 -63 30
c-75 36 -122 90 -235 267 l-79 122 -65 0 c-35 0 -63 -3 -61 -7z"/>
<path d="M2499 1965 c-3 -225 -4 -412 -2 -414 11 -15 13 49 11 415 l-3 409 -6
-410z"/>
<path d="M2828 2217 c-5 -178 -19 -220 -78 -249 -34 -17 -32 -17 133 -18 92 0
167 2 167 5 0 2 -19 9 -42 16 -88 23 -138 118 -158 298 -6 52 -12 96 -14 98
-2 2 -5 -65 -8 -150z"/>
<path d="M3194 2338 c39 -92 140 -298 146 -298 8 0 124 319 118 326 -3 2 -20
-37 -39 -87 l-33 -93 -42 92 -43 92 -61 0 -60 0 14 -32z"/>
<path d="M3748 2213 c-6 -189 -14 -218 -72 -243 l-41 -19 170 0 170 0 -41 19
c-58 25 -66 54 -72 243 l-4 157 -53 0 -53 0 -4 -157z"/>
</g>
</svg>
